/* XPM */
static char *_4d2b44846f94f1fcb59b31efb6b2c2eODRdG83wutHWdNDu[] = {
/* columns rows colors chars-per-pixel */
"32 32 11 1 ",
"  c #200529",
". c #5F2B2C",
"X c #40264D",
"o c #563767",
"O c #584A4C",
"+ c #644574",
"@ c #9E4C3D",
"# c #EA8056",
"$ c #DC8C7E",
"% c #EAB06B",
"& c #B66387",
/* pixels */
"XXXXXXXXXXXXXXXXXXXXXXXXXXXXXXXX",
"XXX++++++++++XXXXXX++++++++++XXX",
"XX+oooooooooo+XXXX+oooooooooo+XX",
"X+oooooooooooo+XX+oooooooooooo+X",
"X+oooooooooooo+XX+oooooooooooo+X",
"X+oooooooooooo+XX+oooooooooooo+X",
"X+oooooooooooo+XX+oooooooooooo+X",
"X+oooooooooo       ooooooooooo+X",
"X+ooooooooo %%%#### oooooooooo+X",
"X+oooooooo %%%%%%### ooooooooo+X",
"X+oooooooo %%%%%%%### oooooooo+X",
"X+oooooooo %%%%%%%%## oooooooo+X",
"X+oooooooo &&%%%%%%## oooooooo+X",
"X+oooooooo $ %%%$%%## oooooooo+X",
"XX+ooooooo $ #%%$%%## ooooooo+XX",
"XXX+++++++ $$#%%&%%## +++++++XXX",
"XXXXXXXXXXX $&%%#%%## XXXXXXXXXX",
"XXX+++++++++   %%%## ++++++++XXX",
"XX+oooooooooo @   # ooooooooo+XX",
"X+ooooooooooo @@ . ooooooooooo+X",
"X+ooooooooooo $@ . ooooooooooo+X",
"X+ooooooooooo $$ O ooooooooooo+X",
"X+oooooooooooo  O oooooooooooo+X",
"X+ooooooooooo ... oooooooooooo+X",
"X+ooooooooooo    +oooooooooooo+X",
"X+oooooooooooo+XX+oooooooooooo+X",
"X+oooooooooooo+XX+oooooooooooo+X",
"X+oooooooooooo+XX+oooooooooooo+X",
"X++ooooooooooo+XX+oooooooooooo+X",
"XX++ooooooooo+XXXX+oooooooooo+XX",
"XXX++++++++++XXXXXX++++++++++XXX",
"XXXXXXXXXXXXXXXXXXXXXXXXXXXXXXXX"
};
