/* XPM */
static char *c638fa727dab4edfc33c6656a6aa88c2AeYms6YtTa0A1j5u[] = {
/* columns rows colors chars-per-pixel */
"32 32 12 1 ",
"  c #200529",
". c #5F2B2C",
"X c #40264D",
"o c #563767",
"O c #584A4C",
"+ c #644574",
"@ c #6E7468",
"# c #9E4C3D",
"$ c #EA8056",
"% c #DC8C7E",
"& c #EAB06B",
"* c #B66387",
/* pixels */
"XXXXXXXXXXXXXXXXXXXXXXXXXXXXXXXX",
"XXX++++++++++XXXXXX++++++++++XXX",
"XX+oooooooooo+XXXX+oooooooooo+XX",
"X+oooooooooooo+XX+oooooooooooo+X",
"X+oooooooooooo+XX+oooooooooooo+X",
"X+oooooooooooo+XX+oooooooooooo+X",
"X+oooooooooooo+XX+oooooooooooo+X",
"X+oooooooooo       ooooooooooo+X",
"X+ooooooooo $$$$$$$ oooooooooo+X",
"X+oooooooo $&&&&&&&$ ooooooooo+X",
"X+ooooooo $&&&&&&&&&$ oooooooo+X",
"X+ooooooo &&&&&&&&&&& oooooooo+X",
"X+ooooo   &&$$$$$$$&&   oooooo+X",
"X+ooooo %*&$*******$&*% oooooo+X",
"XX+ooooo *$*% %%% %*$* oooooo+XX",
"XXX++++++ $%% %%% %%$ +++++++XXX",
"XXXXXXXXX $ %%%%%%% $ XXXXXXXXXX",
"XXX+++++++ .       . ++++++++XXX",
"XX+oooooo ##.#####.## ooooooo+XX",
"X+ooooooo %# .###. #% oooooooo+X",
"X+ooooooo %% ..... %% oooooooo+X",
"X+oooooooo  @@OOO@@  ooooooooo+X",
"X+ooooooooo OOO OOO oooooooooo+X",
"X+ooooooooo #. X .# oooooooooo+X",
"X+oooooooooo  +XX  ooooooooooo+X",
"X+oooooooooooo+XX+oooooooooooo+X",
"X+oooooooooooo+XX+oooooooooooo+X",
"X+oooooooooooo+XX+oooooooooooo+X",
"X++ooooooooooo+XX+oooooooooooo+X",
"XX++ooooooooo+XXXX+oooooooooo+XX",
"XXX++++++++++XXXXXX++++++++++XXX",
"XXXXXXXXXXXXXXXXXXXXXXXXXXXXXXXX"
};
