/* XPM */
static char *b139a2aa73614613966d4be5d4670833PMVAXFuDfZCiVcX2[] = {
/* columns rows colors chars-per-pixel */
"32 32 11 1 ",
"  c #200529",
". c #5F2B2C",
"X c #40264D",
"o c #563767",
"O c #584A4C",
"+ c #644574",
"@ c #9E4C3D",
"# c #EA8056",
"$ c #DC8C7E",
"% c #EAB06B",
"& c #B66387",
/* pixels */
"XXXXXXXXXXXXXXXXXXXXXXXXXXXXXXXX",
"XXX++++++++++XXXXXX++++++++++XXX",
"XX+oooooooooo+XXXX+oooooooooo+XX",
"X+oooooooooooo+XX+oooooooooooo+X",
"X+oooooooooooo+XX+oooooooooooo+X",
"X+oooooooooooo+XX+oooooooooooo+X",
"X+oooooooooooo+XX+oooooooooooo+X",
"X+ooooooooooo       oooooooooo+X",
"X+oooooooooo ####%%% ooooooooo+X",
"X+ooooooooo ###%%%%%% oooooooo+X",
"X+oooooooo ###%%%%%%% oooooooo+X",
"X+oooooooo ##%%%%%%%% oooooooo+X",
"X+oooooooo ##%%%%%%&& oooooooo+X",
"X+oooooooo ##%%$%%% $ oooooooo+X",
"XX+ooooooo ##%%$%%# $ ooooooo+XX",
"XXX+++++++ ##%%&%%#$$ +++++++XXX",
"XXXXXXXXXX ##%%#%%&$ XXXXXXXXXXX",
"XXX++++++++ ##%%%   +++++++++XXX",
"XX+ooooooooo #   @ oooooooooo+XX",
"X+ooooooooooo . @@ ooooooooooo+X",
"X+ooooooooooo . @$ ooooooooooo+X",
"X+ooooooooooo O $$ ooooooooooo+X",
"X+oooooooooooo O  oooooooooooo+X",
"X+oooooooooooo ... ooooooooooo+X",
"X+oooooooooooo+    ooooooooooo+X",
"X+oooooooooooo+XX+oooooooooooo+X",
"X+oooooooooooo+XX+oooooooooooo+X",
"X+oooooooooooo+XX+oooooooooooo+X",
"X++ooooooooooo+XX+oooooooooooo+X",
"XX++ooooooooo+XXXX+oooooooooo+XX",
"XXX++++++++++XXXXXX++++++++++XXX",
"XXXXXXXXXXXXXXXXXXXXXXXXXXXXXXXX"
};
