/* XPM */
static char *_b42d4646f554698f6880d669a7579a0tVOU6EPL9MWweEVe[] = {
/* columns rows colors chars-per-pixel */
"18 18 9 1 ",
"  c None",
". c #200529",
"X c #5F2B2C",
"o c #584A4C",
"O c #9E4C3D",
"+ c #EA8056",
"@ c #DC8C7E",
"# c #EAB06B",
"$ c #B66387",
/* pixels */
"      .......     ",
"     .++++###.    ",
"    .+++######.   ",
"   .+++#######.   ",
"   .++########.   ",
"   .++######$$.   ",
"   .++##@###.@.   ",
"   .++##@##+.@.   ",
"   .++##$##+@@.   ",
"   .++##+##$@.    ",
"    .++###...     ",
"     .+...O.      ",
"      .X.OO.      ",
"      .X.O@.      ",
"      .o.@@.      ",
"       .o..       ",
"       .XXX.      ",
"        ....      "
};
